<svg width="131" height="39" viewBox="0 0 131 39" fill="none" xmlns="http://www.w3.org/2000/svg">
<path fill-rule="evenodd" clip-rule="evenodd" d="M13.5624 2H5V21.46H5.0001C5.00003 21.4786 5 21.497 5 21.5156C5 29.5301 11.4971 36.0272 19.5116 36.0272C27.1708 36.0272 33.4442 30.0933 33.9853 22.572H25.3581C24.8365 25.3571 22.3925 27.4648 19.456 27.4648C16.1397 27.4648 13.4512 24.7763 13.4512 21.46C13.4512 18.1437 16.1397 15.4552 19.456 15.4552C22.4314 15.4552 24.9014 17.6193 25.3777 20.4592H33.9853C33.4442 12.9379 27.1708 7.004 19.5116 7.004C17.3917 7.004 15.3779 7.45859 13.5624 8.27559V2Z" fill="white"/>
<path d="M51.2735 26.3771C50.2545 26.3771 49.3437 26.142 48.5412 25.6719C47.7514 25.1887 47.1273 24.5423 46.6687 23.7326C46.2229 22.9099 46 21.9827 46 20.951C46 19.8932 46.2229 18.953 46.6687 18.1303C47.1146 17.3075 47.726 16.6677 48.503 16.2106C49.28 15.7405 50.1717 15.5054 51.178 15.5054C52.681 15.5054 53.9294 16.093 54.923 17.2684C55.1013 17.4773 55.165 17.6928 55.114 17.9148C55.0631 18.1368 54.923 18.3327 54.6937 18.5024C54.5153 18.633 54.3179 18.6787 54.1014 18.6396C53.8848 18.5874 53.6874 18.4698 53.509 18.287C52.8849 17.6079 52.1078 17.2684 51.178 17.2684C50.1971 17.2684 49.401 17.6079 48.7896 18.287C48.1782 18.953 47.8725 19.841 47.8725 20.951C47.8725 21.6562 48.0126 22.2831 48.2928 22.8315C48.5858 23.38 48.9871 23.8175 49.4966 24.144C50.0061 24.4574 50.5984 24.6141 51.2735 24.6141C52.1397 24.6141 52.8403 24.3856 53.3753 23.9285C53.5791 23.7588 53.7893 23.6673 54.0058 23.6543C54.2224 23.6281 54.4135 23.6869 54.579 23.8306C54.7956 24.0134 54.9166 24.2223 54.9421 24.4574C54.9676 24.6794 54.8912 24.8818 54.7128 25.0646C53.7957 25.9396 52.6492 26.3771 51.2735 26.3771ZM62.3668 26.3771C61.4369 26.3771 60.6026 26.142 59.8637 25.6719C59.125 25.1887 58.5391 24.5423 58.1059 23.7326C57.6855 22.9099 57.4754 21.9827 57.4754 20.951C57.4754 19.9194 57.7047 18.9922 58.1632 18.1694C58.6346 17.3467 59.2651 16.7003 60.0548 16.2302C60.8573 15.747 61.7553 15.5054 62.7489 15.5054C63.7425 15.5054 64.6342 15.747 65.4239 16.2302C66.2137 16.7003 66.8378 17.3467 67.2964 18.1694C67.7677 18.9922 68.0033 19.9194 68.0033 20.951V25.3193C68.0033 25.6066 67.9078 25.8482 67.7167 26.0441C67.5384 26.2269 67.3092 26.3183 67.0289 26.3183C66.7487 26.3183 66.513 26.2269 66.3219 26.0441C66.1436 25.8482 66.0544 25.6066 66.0544 25.3193V24.5945C65.6086 25.143 65.0672 25.5805 64.4303 25.907C63.8062 26.2204 63.1183 26.3771 62.3668 26.3771ZM62.7489 24.6141C63.3985 24.6141 63.9781 24.4574 64.4876 24.144C64.9972 23.8175 65.3985 23.38 65.6914 22.8315C65.9844 22.27 66.1308 21.6432 66.1308 20.951C66.1308 20.2458 65.9844 19.619 65.6914 19.0705C65.3985 18.509 64.9972 18.0715 64.4876 17.7581C63.9781 17.4316 63.3985 17.2684 62.7489 17.2684C62.1121 17.2684 61.5325 17.4316 61.0102 17.7581C60.5007 18.0715 60.093 18.509 59.7873 19.0705C59.4944 19.619 59.3479 20.2458 59.3479 20.951C59.3479 21.6432 59.4944 22.27 59.7873 22.8315C60.093 23.38 60.5007 23.8175 61.0102 24.144C61.5325 24.4574 62.1121 24.6141 62.7489 24.6141ZM71.8592 26.2987C71.2223 26.2987 70.9039 25.9723 70.9039 25.3193V16.5632C70.9039 15.9102 71.2223 15.5837 71.8592 15.5837C72.4961 15.5837 72.8146 15.9102 72.8146 16.5632V16.9354C73.1967 16.4783 73.6617 16.1192 74.2094 15.858C74.7699 15.5968 75.3749 15.4662 76.0245 15.4662C76.7888 15.4662 77.3556 15.5968 77.7251 15.858C78.1072 16.1061 78.2536 16.4065 78.1645 16.7591C78.1008 17.0333 77.9734 17.2162 77.7824 17.3075C77.5913 17.3859 77.3684 17.3989 77.1136 17.3467C76.2984 17.177 75.566 17.1639 74.9163 17.3075C74.2667 17.4512 73.7508 17.7189 73.3687 18.1107C72.9992 18.5024 72.8146 18.9987 72.8146 19.5994V25.3193C72.8146 25.9723 72.4961 26.2987 71.8592 26.2987ZM91.0484 26.3771C90.0548 26.3771 89.1631 26.142 88.3734 25.6719C87.5836 25.1887 86.9595 24.5357 86.5009 23.713C86.0423 22.8903 85.8066 21.9631 85.7939 20.9314V11.999C85.7939 11.6987 85.8831 11.4571 86.0614 11.2742C86.2525 11.0914 86.4881 11 86.7684 11C87.0613 11 87.297 11.0914 87.4753 11.2742C87.6536 11.4571 87.7428 11.6987 87.7428 11.999V17.288C88.1886 16.7395 88.7236 16.3085 89.3478 15.9951C89.9847 15.6687 90.6789 15.5054 91.4305 15.5054C92.3603 15.5054 93.1946 15.747 93.9335 16.2302C94.6723 16.7003 95.2519 17.3467 95.6722 18.1694C96.1053 18.9791 96.3219 19.8998 96.3219 20.9314C96.3219 21.9631 96.0862 22.8903 95.6149 23.713C95.1564 24.5357 94.5321 25.1887 93.7424 25.6719C92.9527 26.142 92.0546 26.3771 91.0484 26.3771ZM91.0484 24.6141C91.698 24.6141 92.2775 24.4574 92.7871 24.144C93.2966 23.8175 93.6978 23.3735 93.9908 22.8119C94.2965 22.2504 94.4494 21.6236 94.4494 20.9314C94.4494 20.2262 94.2965 19.5994 93.9908 19.0509C93.6978 18.5024 93.2966 18.0715 92.7871 17.7581C92.2775 17.4316 91.698 17.2684 91.0484 17.2684C90.4114 17.2684 89.8318 17.4316 89.3096 17.7581C88.8 18.0715 88.3988 18.5024 88.1059 19.0509C87.8129 19.5994 87.6664 20.2262 87.6664 20.9314C87.6664 21.6236 87.8129 22.2504 88.1059 22.8119C88.3988 23.3735 88.8 23.8175 89.3096 24.144C89.8318 24.4574 90.4114 24.6141 91.0484 24.6141ZM100.523 31C100.395 31 100.242 30.9608 100.064 30.8825C99.5035 30.6213 99.3506 30.2099 99.6054 29.6484L101.516 25.2409L97.217 16.8766C97.0896 16.6285 97.0705 16.3934 97.1597 16.1714C97.2616 15.9363 97.4335 15.7666 97.6756 15.6621C97.9176 15.5576 98.1469 15.5511 98.3635 15.6425C98.5799 15.7209 98.7456 15.8841 98.8602 16.1322L102.357 23.2625L105.433 16.1518C105.688 15.6033 106.089 15.4466 106.637 15.6817C107.21 15.9298 107.369 16.3411 107.115 16.9158L101.268 30.3928C101.115 30.7976 100.866 31 100.523 31ZM112.752 26.2987C112.115 26.2987 111.542 26.1355 111.033 25.809C110.523 25.4694 110.122 25.0124 109.829 24.4378C109.536 23.8632 109.389 23.2167 109.389 22.4985V17.6601H108.51C108.243 17.6601 108.026 17.5818 107.861 17.4251C107.696 17.2684 107.612 17.0725 107.612 16.8374C107.612 16.5762 107.696 16.3673 107.861 16.2106C108.026 16.0539 108.243 15.9755 108.51 15.9755H109.389V13.1548C109.389 12.8675 109.478 12.6324 109.657 12.4496C109.835 12.2667 110.065 12.1753 110.345 12.1753C110.625 12.1753 110.854 12.2667 111.033 12.4496C111.211 12.6324 111.3 12.8675 111.3 13.1548V15.9755H112.924C113.192 15.9755 113.408 16.0539 113.574 16.2106C113.739 16.3673 113.822 16.5762 113.822 16.8374C113.822 17.0725 113.739 17.2684 113.574 17.4251C113.408 17.5818 113.192 17.6601 112.924 17.6601H111.3V22.4985C111.3 23.0209 111.44 23.4584 111.72 23.811C112 24.1636 112.344 24.3399 112.752 24.3399H113.402C113.631 24.3399 113.822 24.4312 113.975 24.6141C114.14 24.797 114.223 25.032 114.223 25.3193C114.223 25.6066 114.115 25.8416 113.899 26.0245C113.695 26.2073 113.428 26.2987 113.096 26.2987H112.752ZM121.529 26.3771C120.472 26.3771 119.529 26.1486 118.701 25.6915C117.886 25.2214 117.243 24.5815 116.771 23.7718C116.313 22.9491 116.083 22.0088 116.083 20.951C116.083 19.8802 116.3 18.94 116.733 18.1303C117.179 17.3075 117.791 16.6677 118.567 16.2106C119.345 15.7405 120.236 15.5054 121.242 15.5054C122.236 15.5054 123.09 15.7339 123.803 16.191C124.516 16.635 125.058 17.2553 125.427 18.0519C125.809 18.8355 126 19.7431 126 20.7747C126 21.0228 125.918 21.2318 125.752 21.4016C125.586 21.5583 125.376 21.6366 125.121 21.6366H117.86C118.001 22.5377 118.402 23.2755 119.064 23.8501C119.74 24.4117 120.561 24.6925 121.529 24.6925C121.924 24.6925 122.326 24.6207 122.733 24.477C123.153 24.3203 123.491 24.144 123.745 23.9481C123.936 23.8044 124.141 23.7326 124.357 23.7326C124.586 23.7196 124.784 23.7848 124.949 23.9285C125.166 24.1244 125.281 24.3399 125.293 24.5749C125.306 24.81 125.204 25.0124 124.987 25.1822C124.555 25.5348 124.013 25.822 123.363 26.0441C122.727 26.2661 122.116 26.3771 121.529 26.3771ZM121.242 17.19C120.3 17.19 119.542 17.4577 118.969 17.9931C118.395 18.5286 118.032 19.2207 117.88 20.0695H124.242C124.128 19.2338 123.816 18.5482 123.306 18.0127C122.797 17.4642 122.109 17.19 121.242 17.19Z" fill="white"/>
</svg>
